<mxfile host="app.diagrams.net" agent="Mozilla/5.0 (X11; Linux x86_64; rv:139.0) Gecko/20100101 Firefox/139.0" version="27.1.6">
  <diagram name="Page-1" id="9uaxevfFlOXU5uIuTwJr">
    <mxGraphModel dx="670" dy="354" grid="1" gridSize="10" guides="1" tooltips="1" connect="1" arrows="1" fold="1" page="1" pageScale="1" pageWidth="850" pageHeight="1100" math="0" shadow="0">
      <root>
        <mxCell id="0" />
        <mxCell id="1" parent="0" />
        <mxCell id="FXRWcJAwKJ0lbc6aTtRK-1" value="" style="pointerEvents=1;verticalLabelPosition=bottom;shadow=0;dashed=0;align=center;html=1;verticalAlign=top;shape=mxgraph.electrical.miscellaneous.light_bulb;rotation=90;" vertex="1" parent="1">
          <mxGeometry x="390" y="360" width="60" height="50" as="geometry" />
        </mxCell>
        <mxCell id="FXRWcJAwKJ0lbc6aTtRK-2" value="" style="pointerEvents=1;verticalLabelPosition=bottom;shadow=0;dashed=0;align=center;html=1;verticalAlign=top;shape=mxgraph.electrical.miscellaneous.light_bulb;rotation=90;" vertex="1" parent="1">
          <mxGeometry x="470" y="360" width="60" height="50" as="geometry" />
        </mxCell>
        <mxCell id="FXRWcJAwKJ0lbc6aTtRK-3" value="" style="pointerEvents=1;verticalLabelPosition=bottom;shadow=0;dashed=0;align=center;html=1;verticalAlign=top;shape=mxgraph.electrical.resistors.resistor_1;rotation=90;" vertex="1" parent="1">
          <mxGeometry x="370" y="250" width="100" height="20" as="geometry" />
        </mxCell>
        <mxCell id="FXRWcJAwKJ0lbc6aTtRK-4" value="" style="endArrow=none;html=1;rounded=0;entryX=1;entryY=0.5;entryDx=0;entryDy=0;entryPerimeter=0;exitX=0;exitY=0.5;exitDx=0;exitDy=0;exitPerimeter=0;" edge="1" parent="1" source="FXRWcJAwKJ0lbc6aTtRK-1" target="FXRWcJAwKJ0lbc6aTtRK-3">
          <mxGeometry width="50" height="50" relative="1" as="geometry">
            <mxPoint x="400" y="400" as="sourcePoint" />
            <mxPoint x="450" y="350" as="targetPoint" />
          </mxGeometry>
        </mxCell>
        <mxCell id="FXRWcJAwKJ0lbc6aTtRK-5" value="" style="endArrow=none;html=1;rounded=0;entryX=1;entryY=0.5;entryDx=0;entryDy=0;entryPerimeter=0;exitX=0;exitY=0.5;exitDx=0;exitDy=0;exitPerimeter=0;" edge="1" parent="1" source="FXRWcJAwKJ0lbc6aTtRK-2" target="FXRWcJAwKJ0lbc6aTtRK-3">
          <mxGeometry width="50" height="50" relative="1" as="geometry">
            <mxPoint x="500" y="310" as="sourcePoint" />
            <mxPoint x="450" y="350" as="targetPoint" />
            <Array as="points">
              <mxPoint x="500" y="310" />
            </Array>
          </mxGeometry>
        </mxCell>
        <mxCell id="FXRWcJAwKJ0lbc6aTtRK-7" value="" style="endArrow=none;html=1;rounded=0;entryX=1;entryY=0.5;entryDx=0;entryDy=0;entryPerimeter=0;" edge="1" parent="1" target="FXRWcJAwKJ0lbc6aTtRK-1">
          <mxGeometry width="50" height="50" relative="1" as="geometry">
            <mxPoint x="420" y="440" as="sourcePoint" />
            <mxPoint x="450" y="350" as="targetPoint" />
          </mxGeometry>
        </mxCell>
        <mxCell id="FXRWcJAwKJ0lbc6aTtRK-8" value="" style="endArrow=none;html=1;rounded=0;exitX=1;exitY=0.5;exitDx=0;exitDy=0;exitPerimeter=0;" edge="1" parent="1" source="FXRWcJAwKJ0lbc6aTtRK-2">
          <mxGeometry width="50" height="50" relative="1" as="geometry">
            <mxPoint x="560" y="470" as="sourcePoint" />
            <mxPoint x="500" y="440" as="targetPoint" />
          </mxGeometry>
        </mxCell>
        <mxCell id="FXRWcJAwKJ0lbc6aTtRK-9" value="" style="endArrow=none;html=1;rounded=0;exitX=0;exitY=0.5;exitDx=0;exitDy=0;exitPerimeter=0;entryX=1;entryY=0.5;entryDx=0;entryDy=0;entryPerimeter=0;" edge="1" parent="1" source="FXRWcJAwKJ0lbc6aTtRK-3" target="FXRWcJAwKJ0lbc6aTtRK-12">
          <mxGeometry width="50" height="50" relative="1" as="geometry">
            <mxPoint x="400" y="400" as="sourcePoint" />
            <mxPoint x="320" y="210" as="targetPoint" />
            <Array as="points">
              <mxPoint x="320" y="210" />
            </Array>
          </mxGeometry>
        </mxCell>
        <mxCell id="FXRWcJAwKJ0lbc6aTtRK-10" value="" style="endArrow=none;html=1;rounded=0;" edge="1" parent="1">
          <mxGeometry width="50" height="50" relative="1" as="geometry">
            <mxPoint x="420" y="440" as="sourcePoint" />
            <mxPoint x="500" y="440" as="targetPoint" />
          </mxGeometry>
        </mxCell>
        <mxCell id="FXRWcJAwKJ0lbc6aTtRK-11" value="" style="endArrow=none;html=1;rounded=0;entryX=0;entryY=0.5;entryDx=0;entryDy=0;entryPerimeter=0;" edge="1" parent="1" target="FXRWcJAwKJ0lbc6aTtRK-12">
          <mxGeometry width="50" height="50" relative="1" as="geometry">
            <mxPoint x="420" y="440" as="sourcePoint" />
            <mxPoint x="320" y="440" as="targetPoint" />
            <Array as="points">
              <mxPoint x="320" y="440" />
            </Array>
          </mxGeometry>
        </mxCell>
        <mxCell id="FXRWcJAwKJ0lbc6aTtRK-12" value="" style="verticalLabelPosition=bottom;shadow=0;dashed=0;align=center;fillColor=strokeColor;html=1;verticalAlign=top;strokeWidth=1;shape=mxgraph.electrical.miscellaneous.monocell_battery;rotation=-90;" vertex="1" parent="1">
          <mxGeometry x="270" y="290" width="100" height="60" as="geometry" />
        </mxCell>
        <mxCell id="FXRWcJAwKJ0lbc6aTtRK-13" value="" style="endArrow=classic;html=1;rounded=0;strokeColor=light-dark(#000000,#0000CC);" edge="1" parent="1">
          <mxGeometry width="50" height="50" relative="1" as="geometry">
            <mxPoint x="280" y="210" as="sourcePoint" />
            <mxPoint x="280" y="430" as="targetPoint" />
          </mxGeometry>
        </mxCell>
        <mxCell id="FXRWcJAwKJ0lbc6aTtRK-14" value="U&lt;sub&gt;S&lt;/sub&gt;" style="edgeLabel;html=1;align=center;verticalAlign=middle;resizable=0;points=[];" vertex="1" connectable="0" parent="FXRWcJAwKJ0lbc6aTtRK-13">
          <mxGeometry x="-0.2409" y="2" relative="1" as="geometry">
            <mxPoint x="-12" y="27" as="offset" />
          </mxGeometry>
        </mxCell>
        <mxCell id="FXRWcJAwKJ0lbc6aTtRK-15" value="" style="endArrow=classic;html=1;rounded=0;strokeColor=light-dark(#000000,#0000CC);" edge="1" parent="1">
          <mxGeometry width="50" height="50" relative="1" as="geometry">
            <mxPoint x="540" y="320" as="sourcePoint" />
            <mxPoint x="540" y="430" as="targetPoint" />
          </mxGeometry>
        </mxCell>
        <mxCell id="FXRWcJAwKJ0lbc6aTtRK-16" value="U&lt;sub&gt;B&lt;/sub&gt;" style="edgeLabel;html=1;align=center;verticalAlign=middle;resizable=0;points=[];" vertex="1" connectable="0" parent="FXRWcJAwKJ0lbc6aTtRK-15">
          <mxGeometry x="-0.2409" y="2" relative="1" as="geometry">
            <mxPoint x="8" y="18" as="offset" />
          </mxGeometry>
        </mxCell>
        <mxCell id="FXRWcJAwKJ0lbc6aTtRK-17" value="" style="endArrow=classic;html=1;rounded=0;strokeColor=light-dark(#000000,#0000CC);" edge="1" parent="1">
          <mxGeometry width="50" height="50" relative="1" as="geometry">
            <mxPoint x="540" y="205" as="sourcePoint" />
            <mxPoint x="540" y="300" as="targetPoint" />
          </mxGeometry>
        </mxCell>
        <mxCell id="FXRWcJAwKJ0lbc6aTtRK-18" value="U&lt;sub&gt;R&lt;/sub&gt;" style="edgeLabel;html=1;align=center;verticalAlign=middle;resizable=0;points=[];" vertex="1" connectable="0" parent="FXRWcJAwKJ0lbc6aTtRK-17">
          <mxGeometry x="-0.2409" y="2" relative="1" as="geometry">
            <mxPoint x="8" y="18" as="offset" />
          </mxGeometry>
        </mxCell>
        <mxCell id="FXRWcJAwKJ0lbc6aTtRK-19" value="R" style="text;html=1;align=center;verticalAlign=middle;whiteSpace=wrap;rounded=0;" vertex="1" parent="1">
          <mxGeometry x="430" y="250" width="20" height="20" as="geometry" />
        </mxCell>
        <mxCell id="FXRWcJAwKJ0lbc6aTtRK-20" value="" style="endArrow=classic;html=1;rounded=0;strokeColor=light-dark(#000000,#CC0000);" edge="1" parent="1">
          <mxGeometry width="50" height="50" relative="1" as="geometry">
            <mxPoint x="420" y="320" as="sourcePoint" />
            <mxPoint x="420" y="350" as="targetPoint" />
          </mxGeometry>
        </mxCell>
        <mxCell id="FXRWcJAwKJ0lbc6aTtRK-28" value="I&lt;sub&gt;B1&lt;/sub&gt;" style="edgeLabel;html=1;align=center;verticalAlign=middle;resizable=0;points=[];" vertex="1" connectable="0" parent="FXRWcJAwKJ0lbc6aTtRK-20">
          <mxGeometry x="-0.4" y="2" relative="1" as="geometry">
            <mxPoint x="-12" y="1" as="offset" />
          </mxGeometry>
        </mxCell>
        <mxCell id="FXRWcJAwKJ0lbc6aTtRK-26" value="" style="endArrow=classic;html=1;rounded=0;strokeColor=light-dark(#000000,#CC0000);" edge="1" parent="1">
          <mxGeometry width="50" height="50" relative="1" as="geometry">
            <mxPoint x="500" y="320" as="sourcePoint" />
            <mxPoint x="500" y="350" as="targetPoint" />
          </mxGeometry>
        </mxCell>
        <mxCell id="FXRWcJAwKJ0lbc6aTtRK-29" value="I&lt;sub&gt;B2&lt;/sub&gt;" style="edgeLabel;html=1;align=center;verticalAlign=middle;resizable=0;points=[];" vertex="1" connectable="0" parent="FXRWcJAwKJ0lbc6aTtRK-26">
          <mxGeometry x="-0.3" y="1" relative="1" as="geometry">
            <mxPoint x="-11" as="offset" />
          </mxGeometry>
        </mxCell>
        <mxCell id="FXRWcJAwKJ0lbc6aTtRK-27" value="" style="endArrow=classic;html=1;rounded=0;strokeColor=light-dark(#000000,#CC0000);" edge="1" parent="1">
          <mxGeometry width="50" height="50" relative="1" as="geometry">
            <mxPoint x="360.25" y="210" as="sourcePoint" />
            <mxPoint x="390" y="210" as="targetPoint" />
          </mxGeometry>
        </mxCell>
        <mxCell id="FXRWcJAwKJ0lbc6aTtRK-30" value="I&lt;sub&gt;tot&lt;/sub&gt;" style="edgeLabel;html=1;align=center;verticalAlign=middle;resizable=0;points=[];" vertex="1" connectable="0" parent="FXRWcJAwKJ0lbc6aTtRK-27">
          <mxGeometry x="-0.2101" y="1" relative="1" as="geometry">
            <mxPoint x="-2" y="-9" as="offset" />
          </mxGeometry>
        </mxCell>
      </root>
    </mxGraphModel>
  </diagram>
</mxfile>
